inDegrees=no
num_controls=7
num_derivatives=13
num_iterations=105
num_multipliers=7
num_parameters=0
num_slacks=7
num_states=26
objective=0.453891
objective_accelerations=0.046963
objective_balance=0.000912
objective_effort=0.037179
objective_height=0.362847
objective_ligament=0.005991
solver_duration=1187.024208
status=Solve_Succeeded
success=true
DataType=double
version=3
OpenSimVersion=4.5
endheader
time	/jointset/ground_pelvis/pelvis_tilt/value	/jointset/ground_pelvis/pelvis_tx/value	/jointset/ground_pelvis/pelvis_ty/value	/jointset/hip_r/hip_flexion_r/value	/jointset/hip_r/hip_adduction_r/value	/jointset/hip_r/hip_rotation_r/value	/jointset/back/lumbar_extension/value	/jointset/patellofemoral_r/patellar_flexion_r/value	/jointset/knee_r/knee_flexion_r/value	/jointset/knee_r/knee_adduction_r/value	/jointset/knee_r/knee_rotation_r/value	/jointset/ankle_r/ankle_angle_r/value	/jointset/subtalar_r/subtalar_angle_r/value	/jointset/ground_pelvis/pelvis_tilt/speed	/jointset/ground_pelvis/pelvis_tx/speed	/jointset/ground_pelvis/pelvis_ty/speed	/jointset/hip_r/hip_flexion_r/speed	/jointset/hip_r/hip_adduction_r/speed	/jointset/hip_r/hip_rotation_r/speed	/jointset/back/lumbar_extension/speed	/jointset/patellofemoral_r/patellar_flexion_r/speed	/jointset/knee_r/knee_flexion_r/speed	/jointset/knee_r/knee_adduction_r/speed	/jointset/knee_r/knee_rotation_r/speed	/jointset/ankle_r/ankle_angle_r/speed	/jointset/subtalar_r/subtalar_angle_r/speed	/forceset/tau_hip_flexion_r	/forceset/tau_hip_adduction_r	/forceset/tau_hip_rotation_r	/forceset/tau_knee_flexion_r	/forceset/tau_ankle_angle_r	/forceset/tau_subtalar_angle_r	/forceset/tau_lumbar_extension	lambda_cid13_p0	lambda_cid14_p0	lambda_cid14_p1	lambda_cid14_p2	lambda_cid14_p3	lambda_cid14_p4	lambda_cid14_p5	/jointset/ground_pelvis/pelvis_tilt/accel	/jointset/ground_pelvis/pelvis_tx/accel	/jointset/ground_pelvis/pelvis_ty/accel	/jointset/hip_r/hip_flexion_r/accel	/jointset/hip_r/hip_adduction_r/accel	/jointset/hip_r/hip_rotation_r/accel	/jointset/back/lumbar_extension/accel	/jointset/patellofemoral_r/patellar_flexion_r/accel	/jointset/knee_r/knee_flexion_r/accel	/jointset/knee_r/knee_adduction_r/accel	/jointset/knee_r/knee_rotation_r/accel	/jointset/ankle_r/ankle_angle_r/accel	/jointset/subtalar_r/subtalar_angle_r/accel	gamma_cid13_p0	gamma_cid14_p0	gamma_cid14_p1	gamma_cid14_p2	gamma_cid14_p3	gamma_cid14_p4	gamma_cid14_p5
1	-0.2212497205843932	-0.008628140025538914	0.6426923941965381	1.396166394356886	-0.247064226649854	0.02843348848072233	-0.7853952702771803	1.504412937899505	1.504412937899493	-0.04090107744523656	0.1745152737955872	0.4362335021866149	0.1563916560136165	0.06963143122694551	0.005017372592994665	0.01230434264111539	-0.09354130445110674	-0.001435678075856863	-0.005997203586992838	-0.0002400621646009968	-0.009091728793146282	-0.009091728793145936	-0.002113037470436125	-5.42788360186369e-05	0.01526732101341976	0.004806343466350568	-0.3249094855792324	0.02568059880302104	0.02815390955043648	-0.4656440443205547	-0.02059536615984581	-0.007926035277067242	0.3522660446143205	-0.04073042815474669	-58.75876907368115	-16.52185220863969	6.244350668617662	8.250833641151127	-765.0303769620674	66.47060589730749	1.272633714549738	0.1397900404014747	1.749030878390543	-5.270709697009382	0.04851455760242122	-1.340114895775259	-0.03971791686460857	-4.888523398785872	-4.888523398785808	0.1389201368079568	0.001134802181093375	-1.095269778474293	-0.4031497213447059	6.095428050640229e-10	-2.603948302760901e-09	-4.092036592459348e-09	3.051649148518192e-09	5.624132587332856e-09	-6.58837963658152e-09	-8.662343680694986e-09
1.01	-0.2204906774222418	-0.008570807961896711	0.6429028254363316	1.394968169056349	-0.2470760504590682	0.02830699874663282	-0.7853974754412452	1.504077638787191	1.504077638787185	-0.04091494728348011	0.1745144171629329	0.4363316419132116	0.1564198559106138	0.08215265495476856	0.006469081621515338	0.02978833351888342	-0.1461207391384483	-0.0009328928347691159	-0.01929817319389967	-5.817972547714002e-05	-0.05798810189747144	-0.05798810189747042	-0.0006471645895746289	-0.0001110299889606579	0.004381279716105037	0.0008362045400076923	-0.3255222416701228	0.02574932946290885	0.02818386324422768	-0.4659784656348404	-0.02052122243120875	-0.007943523341293678	0.3532093652338473	-0.04072691077297498	-58.77846341950393	-16.54114716424862	6.256852049425669	7.98066098987565	-765.8317746421095	66.49210578608528	1.238185165059662	0.1508694115562022	1.74904513467095	-5.254107807484971	0.05059080511602197	-1.324703285189509	0.06855996203948767	-4.893195700544919	-4.893195700544775	0.1524868126595632	-0.008176030705867199	-1.082173976314139	-0.3935588563692291	9.966264437135066e-10	-4.454718133958117e-09	6.424301119218466e-09	5.715812350774097e-09	9.236602337596748e-09	-1.139143265003944e-08	2.389895820623651e-09
1.02	-0.2196071583301812	-0.008498357192473069	0.6432882889733428	1.39324363991836	-0.247082960356316	0.02804757625805378	-0.7853935780533143	1.503252775656976	1.503252775656978	-0.04091374520311906	0.1745131738274125	0.4363215406927546	0.156408431842731	0.09452661720903438	0.008041113749282935	0.04731080208466751	-0.1988020719413226	-0.0004528956835189503	-0.0325837544824497	0.0009804482231865756	-0.1070045323733606	-0.1070045323733592	0.000901346248657892	-0.0001316194088637093	-0.006380868419373031	-0.003118449509941161	-0.3261349977610198	0.02581806012279502	0.02821381693802903	-0.4663128869491285	-0.02044707870257437	-0.007961011405524713	0.3541526858533665	-0.04072955557825896	-58.80594139719519	-16.5596925576196	6.266821078055629	7.717969444822717	-766.7651114847019	66.51699468187233	1.243181419838319	0.1638546602508425	1.756726415993754	-5.291089320115917	0.04395693963490672	-1.337037232103901	0.1316311850434215	-4.912534873098672	-4.912534873098666	0.1554477282821618	0.008367148788891889	-1.070491146106994	-0.4000527460659142	1.415756415180744e-09	-3.300577106654434e-09	1.666942912545561e-08	9.032946206349999e-09	6.385501453882416e-09	-1.367523772387158e-08	1.504587368527983e-08
1.03	-0.2186009455322677	-0.008409652131716969	0.6438490590188413	1.390992377907858	-0.2470851297777555	0.02765546676781161	-0.7853744425500377	1.501937172255965	1.501937172255964	-0.04089662725384421	0.1745118718220461	0.4362041819515295	0.1563575266014268	0.1066593421258972	0.00971332219210131	0.0648385137882239	-0.2514074162065645	2.047759398418499e-05	-0.04582785149188739	0.003047944682465326	-0.1561340341808106	-0.1561340341808125	0.002536677110659898	-0.0001255309057438948	-0.01709586401642541	-0.007061587560514222	-0.3269265052003067	0.02597258398851041	0.02820260551478495	-0.4658582592843787	-0.02126029357998829	-0.007869602043984097	0.3552284076905871	-0.04074828470271961	-59.09802021201546	-16.55166498202826	6.243302534149369	7.762150949702203	-767.4513942683299	66.50809220468355	1.189828469543889	0.1709181809661943	1.750086363172983	-5.238819750669991	0.04925004289880378	-1.316553883439042	0.2745027142329904	-4.91584115688253	-4.915841156882954	0.1697434739039843	-0.002778570910177189	-1.072752738446209	-0.3912868131864659	1.835213390044082e-09	-2.115773723651746e-09	2.691178968571886e-08	1.235674302777611e-08	3.468445767780515e-09	-1.593333618607488e-08	2.771821622711293e-08
